<svg xmlns="http://www.w3.org/2000/svg" style="enable-background:new 0 0 336 235.2" width="800" height="800">
  <path style="fill:#fff;fill-opacity:1;stroke:#fff;stroke-opacity:1;stroke-width:0;paint-order:fill" d="M860 192v422l381-381h91l-215 215 218 217h-93l-170-170-214 214 200-1s48 4 105-31l-32-31c-27 18-74 20-74 20l-97-1 111-111 153 153h208l-257-257 257-257h-208L901 515V233h139s58-1 88 23l33-32c-58-33-121-32-121-32H860Z" transform="translate(-739 -48)"/>
  <path style="fill:#fff;fill-opacity:1;stroke:#fff;stroke-opacity:1;stroke-width:0;paint-order:stroke" d="m1284 375-34 34c5 24 7 48 0 82l34 34c20-58 9-129 0-150Z" transform="translate(-739 -48)"/>
</svg>